<svg xmlns="http://www.w3.org/2000/svg" style="display: none;">
	<symbol id="logo-bb" viewBox="0 0 135 43">
		<path id="TSEKH" fill-rule="evenodd" clip-rule="evenodd" d="M15.9855 42.5231H7.55533V21.4253H0V14.9967H23.5408V21.4253H15.9855V42.5231ZM25.9221 34.1871H33.6763C33.9944 35.8467 36.0025 36.8005 38.3884 36.8005C40.9135 36.8005 42.4643 35.8086 42.4643 34.4542C42.4643 33.157 41.3509 32.6038 38.1299 32.0506L35.247 31.5547C29.5407 30.5818 26.4192 27.8158 26.4192 23.5429C26.4192 18.0109 31.3898 14.52 38.2095 14.52C45.8841 14.52 50.1787 17.9346 50.2185 23.3712H42.4643C42.4047 21.6925 40.6153 20.7196 38.3089 20.7196C35.9628 20.7196 34.7698 21.7116 34.7698 22.9515C34.7698 24.1914 36.0025 24.7828 38.8656 25.2787L41.7486 25.7747C47.9121 26.843 50.8149 29.2656 50.8149 33.7293C50.8149 39.3948 46.2022 43.0001 38.289 43.0001C30.853 43.0001 25.942 39.8145 25.9221 34.1871ZM74.4903 36.0945V42.5231H54.25V14.9967H74.4903V21.4253H62.6802V25.8699H73.7547V31.669H62.6802V36.0945H74.4903ZM87.1509 42.5231H78.7207V14.9967H87.1509V26.6711H87.3099L96.1775 14.9967H105.025L95.581 27.2243L105.463 42.5231H95.6606L89.3976 32.4129L87.1509 35.3124V42.5231ZM134.705 42.5231H126.275V31.8788H116.175V42.5231H107.745V14.9967H116.175V25.4503H126.275V14.9967H134.705V42.5231Z" fill="#333"/>
		<path id="Rectangle" d="M107.669 0H134.785V9.0155H107.669V0Z" fill="#3454f5"/>
	</symbol>

	<symbol id="logo-w" viewBox="0 0 135 43">
		<path id="TSEKH" fill-rule="evenodd" clip-rule="evenodd" d="M15.9855 42.5231H7.55533V21.4253H0V14.9967H23.5408V21.4253H15.9855V42.5231ZM25.9221 34.1871H33.6763C33.9944 35.8467 36.0025 36.8005 38.3884 36.8005C40.9135 36.8005 42.4643 35.8086 42.4643 34.4542C42.4643 33.157 41.3509 32.6038 38.1299 32.0506L35.247 31.5547C29.5407 30.5818 26.4192 27.8158 26.4192 23.5429C26.4192 18.0109 31.3898 14.52 38.2095 14.52C45.8841 14.52 50.1787 17.9346 50.2185 23.3712H42.4643C42.4047 21.6925 40.6153 20.7196 38.3089 20.7196C35.9628 20.7196 34.7698 21.7116 34.7698 22.9515C34.7698 24.1914 36.0025 24.7828 38.8656 25.2787L41.7486 25.7747C47.9121 26.843 50.8149 29.2656 50.8149 33.7293C50.8149 39.3948 46.2022 43.0001 38.289 43.0001C30.853 43.0001 25.942 39.8145 25.9221 34.1871ZM74.4903 36.0945V42.5231H54.25V14.9967H74.4903V21.4253H62.6802V25.8699H73.7547V31.669H62.6802V36.0945H74.4903ZM87.1509 42.5231H78.7207V14.9967H87.1509V26.6711H87.3099L96.1775 14.9967H105.025L95.581 27.2243L105.463 42.5231H95.6606L89.3976 32.4129L87.1509 35.3124V42.5231ZM134.705 42.5231H126.275V31.8788H116.175V42.5231H107.745V14.9967H116.175V25.4503H126.275V14.9967H134.705V42.5231Z" fill="#fff"/>
		<path id="Rectangle" d="M107.669 0H134.785V9.0155H107.669V0Z" fill="#fff"/>
	</symbol>

	<symbol id="mail" viewBox="0 0 20 20">
		<path d="M3.33333 3.3335H16.6667C17.5833 3.3335 18.3333 4.0835 18.3333 5.00016V15.0002C18.3333 15.9168 17.5833 16.6668 16.6667 16.6668H3.33333C2.41666 16.6668 1.66666 15.9168 1.66666 15.0002V5.00016C1.66666 4.0835 2.41666 3.3335 3.33333 3.3335Z" fill="none" stroke="#999999" stroke-linecap="round" stroke-linejoin="round"/>
		<path d="M18.3333 5L10 10.8333L1.66666 5" fill="none" stroke="#999999" stroke-linecap="round" stroke-linejoin="round"/>
	</symbol>

	<symbol id="phone" viewBox="0 0 20 20">
		<path d="M18.3335 14.0999V16.5999C18.3344 16.832 18.2869 17.0617 18.1939 17.2744C18.1009 17.487 17.9646 17.6779 17.7936 17.8348C17.6225 17.9917 17.4206 18.1112 17.2008 18.1855C16.9809 18.2599 16.748 18.2875 16.5168 18.2666C13.9525 17.988 11.4893 17.1117 9.32516 15.7083C7.31168 14.4288 5.60461 12.7217 4.32516 10.7083C2.91681 8.53426 2.04036 6.05908 1.76683 3.48325C1.746 3.25281 1.77339 3.02055 1.84724 2.80127C1.9211 2.58199 2.0398 2.38049 2.1958 2.2096C2.35179 2.03871 2.54166 1.90218 2.75332 1.80869C2.96497 1.7152 3.19378 1.6668 3.42516 1.66658H5.92516C6.32958 1.6626 6.72165 1.80582 7.0283 2.06953C7.33494 2.33324 7.53522 2.69946 7.59183 3.09992C7.69735 3.89997 7.89304 4.68552 8.17516 5.44158C8.28728 5.73985 8.31155 6.06401 8.24508 6.37565C8.17862 6.68729 8.02421 6.97334 7.80016 7.19992L6.74183 8.25825C7.92812 10.3445 9.65554 12.072 11.7418 13.2583L12.8002 12.1999C13.0267 11.9759 13.3128 11.8215 13.6244 11.755C13.9361 11.6885 14.2602 11.7128 14.5585 11.8249C15.3146 12.107 16.1001 12.3027 16.9002 12.4083C17.305 12.4654 17.6747 12.6693 17.9389 12.9812C18.2032 13.2931 18.3436 13.6912 18.3335 14.0999Z" fill="none" stroke="#999999" stroke-linecap="round" stroke-linejoin="round"/>
	</symbol>

	<symbol id="case-arrow" viewBox="0 0 48 48">
		<path d="M12.911 35.4641L33.911 14.4641" fill="none" stroke-width="2" stroke-linecap="round" stroke-linejoin="round"/>
		<path d="M22.4209 13.5801H34.7953V25.9544" fill="none" stroke-width="2" stroke-linecap="round" stroke-linejoin="round"/>
	</symbol>

	<symbol id="behance" viewBox="0 0 40 40">
		<path d="M20 40C31.0457 40 40 31.0457 40 20C40 8.9543 31.0457 0 20 0C8.9543 0 0 8.9543 0 20C0 31.0457 8.9543 40 20 40Z" fill="#BDCDD8"/>
		<path d="M28.7706 15.0252H23.0077V13.5937H28.7711V15.0252H28.7706ZM19.1712 20.8952C19.543 21.4711 19.7288 22.1705 19.7288 22.9915C19.7288 23.8405 19.5193 24.6022 19.0931 25.275C18.8219 25.7202 18.4853 26.0963 18.0807 26.3991C17.6252 26.7492 17.0858 26.9893 16.4657 27.1176C15.8436 27.2461 15.1704 27.311 14.4451 27.311H8V13H14.9114C16.6535 13.0283 17.8886 13.5331 18.6179 14.5243C19.0555 15.1322 19.2723 15.8617 19.2723 16.7096C19.2723 17.5846 19.0529 18.2846 18.611 18.8165C18.3652 19.1148 18.002 19.386 17.5213 19.6309C18.2494 19.8974 18.8019 20.3172 19.1712 20.8952ZM11.3005 18.6421H14.3288C14.9511 18.6421 15.4541 18.5238 15.8416 18.2874C16.2288 18.0513 16.422 17.6316 16.422 17.0291C16.422 16.3634 16.1662 15.9216 15.6533 15.7089C15.2125 15.5611 14.6485 15.4851 13.9641 15.4851H11.3005V18.6421ZM16.7136 22.7871C16.7136 22.0437 16.4098 21.5298 15.8033 21.254C15.4642 21.0973 14.9857 21.0172 14.3722 21.0114H11.3005V24.8252H14.3247C14.946 24.8252 15.4269 24.7439 15.7739 24.5742C16.3998 24.2623 16.7136 23.6686 16.7136 22.7871ZM30.9089 20.4589C30.9785 20.9271 31.01 21.6064 30.9972 22.4944H23.5336C23.5747 23.5246 23.9304 24.245 24.6049 24.6573C25.0117 24.9158 25.5048 25.0421 26.0823 25.0421C26.6913 25.0421 27.1876 24.8881 27.5697 24.5717C27.7779 24.4039 27.9615 24.1672 28.1203 23.8684H30.8559C30.7843 24.4769 30.4549 25.094 29.8629 25.7211C28.9458 26.7179 27.6596 27.2177 26.0077 27.2177C24.6431 27.2177 23.4404 26.7962 22.3965 25.9562C21.3561 25.1133 20.8335 23.7462 20.8335 21.8497C20.8335 20.0714 21.3027 18.7102 22.244 17.7628C23.1889 16.8136 24.4083 16.3412 25.9114 16.3412C26.8023 16.3412 27.6054 16.5004 28.3219 16.8205C29.0361 17.141 29.6264 17.6454 30.0913 18.3385C30.5121 18.949 30.7826 19.6548 30.9089 20.4589ZM28.2161 20.7259C28.166 20.0136 27.9281 19.4744 27.4999 19.1059C27.0751 18.7364 26.5445 18.5509 25.9114 18.5509C25.2223 18.5509 24.6903 18.7492 24.3122 19.1389C23.9316 19.5278 23.6948 20.0566 23.5977 20.726H28.2161V20.7259Z" fill="#2E3646"/>
	</symbol>

	<symbol id="facebook" viewBox="0 0 40 40">
		<path d="M19.9999 0C31.0462 0 40 8.95499 40 20.0001C40 31.0464 31.0462 40 19.9999 40C8.95362 40 0 31.0462 0 20.0001C0 8.95499 8.95376 0 19.9999 0Z" fill="#BDCDD8"/>
		<path d="M22.4351 13.7685H25.0126V9.96094H21.9827V9.97467C18.3114 10.1047 17.5589 12.1685 17.4926 14.336H17.485V16.2373H14.9851V19.966H17.485V29.9609H21.2526V19.966H24.3388L24.935 16.2373H21.2538V15.0886C21.2538 14.356 21.7413 13.7685 22.4351 13.7685Z" fill="#2E3646"/>
	</symbol>

	<symbol id="instagram" viewBox="0 0 40 40">
		<path d="M20 40C31.0457 40 40 31.0457 40 20C40 8.9543 31.0457 0 20 0C8.9543 0 0 8.9543 0 20C0 31.0457 8.9543 40 20 40Z" fill="#BDCDD8"/>
		<path d="M24.0419 10H15.9581C12.6728 10 10 12.6728 10 15.9581V24.0419C10 27.3272 12.6728 30 15.9581 30H24.0419C27.3272 30 30 27.3272 30 24.0419V15.9581C30 12.6728 27.3272 10 24.0419 10ZM27.988 24.0419C27.988 26.2213 26.2213 27.988 24.0419 27.988H15.9581C13.7788 27.988 12.012 26.2213 12.012 24.0419V15.9581C12.012 13.7787 13.7788 12.012 15.9581 12.012H24.0419C26.2213 12.012 27.988 13.7787 27.988 15.9581V24.0419Z" fill="#2E3646"/>
		<path d="M20 14.8276C17.1477 14.8276 14.8273 17.1481 14.8273 20.0003C14.8273 22.8525 17.1477 25.173 20 25.173C22.8522 25.173 25.1727 22.8525 25.1727 20.0003C25.1727 17.148 22.8522 14.8276 20 14.8276ZM20 23.161C18.2544 23.161 16.8393 21.7459 16.8393 20.0003C16.8393 18.2547 18.2544 16.8396 20 16.8396C21.7456 16.8396 23.1607 18.2547 23.1607 20.0003C23.1607 21.7459 21.7456 23.161 20 23.161Z" fill="#2E3646"/>
		<path d="M25.1827 16.1055C25.8673 16.1055 26.4222 15.5505 26.4222 14.866C26.4222 14.1814 25.8673 13.6265 25.1827 13.6265C24.4982 13.6265 23.9432 14.1814 23.9432 14.866C23.9432 15.5505 24.4982 16.1055 25.1827 16.1055Z" fill="#2E3646"/>
	</symbol>
</svg>
